<svg width="512" height="512" viewBox="0 0 512 512" fill="none" xmlns="http://www.w3.org/2000/svg">
  <rect width="512" height="512" rx="112" fill="#5FBF8F"/>
  <path d="M153 292C132 292 115 275 115 254C115 233 132 216 153 216H167C176 172 214 139 260 139C310 139 351 178 354 227C380 231 400 254 400 281C400 311 376 335 346 335H166C158 335 151 328 151 320C151 312 158 305 166 305H346C359 305 370 294 370 281C370 268 359 257 346 257H324V235C324 198 295 169 260 169C225 169 197 197 195 231L194 246H153C148 246 145 250 145 254C145 258 148 262 153 262H166C174 262 181 269 181 277C181 285 174 292 166 292H153Z" fill="white"/>
  <path d="M194 377C194 391 182 403 168 403C154 403 142 391 142 377C142 358 168 329 168 329C168 329 194 358 194 377Z" fill="#EAF8F0"/>
  <path d="M286 366C286 389 267 408 244 408C221 408 202 389 202 366C202 335 244 287 244 287C244 287 286 335 286 366Z" fill="#EAF8F0"/>
  <path d="M366 377C366 391 354 403 340 403C326 403 314 391 314 377C314 358 340 329 340 329C340 329 366 358 366 377Z" fill="#EAF8F0"/>
</svg>
